<svg height="960" viewBox="0 0 960 960" width="960" xmlns="http://www.w3.org/2000/svg"><g fill="none" fill-rule="evenodd" stroke="#000" stroke-linejoin="round"><path d="m498.91206 21.0000094c118.649923-.0254249 226.143494 51.4055878 303.920155 134.7920566 77.270765 82.844084 125.167785 197.26426 125.167785 323.707934s-47.89702 240.86385-125.167785 323.707934c-77.757445 83.365867-185.217118 134.792066-303.832215 134.792066-3.115655 0-6.223571-.035528-9.323416-.106218l-2.318146.045831-7.274489.060379c-123.799412.02323-235.904124-51.33951-317.038107-134.463929-80.9423252-82.92806-131.045842-197.481273-131.045842-324.036063s50.1035168-241.108003 131.045842-324.036063c81.115643-83.1056293 193.188016-134.463937 316.954158-134.463937 3.253361 0 6.498624.0355253 9.735441.1062107l2.207281-.0456675z" stroke-width="40"/><g stroke-linecap="round" stroke-width="20"><ellipse cx="480" cy="479.5" rx="428" ry="438.5"/><ellipse cx="499" cy="479.5" rx="409" ry="447.5"/><ellipse cx="582.991448" cy="485" rx="151.108696" ry="168"/><ellipse cx="563.018622" cy="485" rx="295" ry="338"/><path d="m637.355157 185.942995c-20.087664-5.201721-40.954782-7.942995-62.363709-7.942995-16.052601 0-31.800591 1.54118-47.143788 4.505158"/><path d="m631.990101 212.766634c-18.412856-4.441441-37.47528-6.773608-56.998653-6.773608-13.358286 0-26.500775 1.091821-39.367049 3.204065"/><path d="m625.41719 237.651866c-16.355808-3.524793-33.208824-5.365952-50.425742-5.365952-10.792138 0-21.441292.723428-31.914628 2.131487"/></g></g></svg>