<?xml version="1.0" encoding="utf-8"?>
<!-- Generator: Adobe Illustrator 21.0.0, SVG Export Plug-In . SVG Version: 6.00 Build 0)  -->
<svg version="1.1" id="Layer_1" xmlns="http://www.w3.org/2000/svg" xmlns:xlink="http://www.w3.org/1999/xlink" x="0px" y="0px"
	 viewBox="0 0 766.8 1417.3" style="enable-background:new 0 0 766.8 1417.3;" xml:space="preserve">
<g>
	<path d="M665.6,14.7H101.2c-48.2,0-87.4,39.2-87.4,87.4v1214.2c0,48.2,39.2,87.4,87.4,87.4h564.4c48.2,0,87.4-39.2,87.4-87.4V102.1
		C753,53.9,713.7,14.7,665.6,14.7z M738.9,1316.3c0,40.4-32.9,73.3-73.3,73.3H101.2c-40.4,0-73.3-32.9-73.3-73.3V102.1
		c0-40.4,32.9-73.3,73.3-73.3h564.4c40.4,0,73.3,32.9,73.3,73.3V1316.3z"/>
	<path d="M247.3,994c-21.3,0-38.5,17.2-38.5,38.5c0,21.3,17.2,38.5,38.5,38.5c21.3,0,38.5-17.3,38.5-38.5
		C285.9,1011.2,268.6,994,247.3,994z"/>
	<path d="M383.6,762.1c-72.3,0-140.3,28.1-191.3,79.1c-13.8,13.8-25.6,28.5-36.3,45v-0.4l-5.1,8.6c-0.3,0.5-0.5,0.9-0.9,1.4
		l-0.7,1.6c-0.2,0.4-0.4,0.9-0.6,1.1l-0.9,1.7l-1.1,1.4l-0.6,1.5c-0.1,0.2-0.3,0.6-0.5,0.9c-0.2,0.4-0.4,0.7-0.6,1l-1.3,2.5
		l-0.1,0.1l-0.3,0.5H143l-0.2,0.6c-0.2,0.7-0.5,1.2-0.7,1.7l-0.6,1.1c-0.2,0.7-0.5,1.2-0.7,1.7l-0.9,1.4l-2.1,4.7l-0.5,0.8l-0.1,0.2
		c-0.2,0.7-0.5,1.5-0.7,1.9l-0.5,0.8l-0.1,0.2c-0.1,0.4-0.3,0.7-0.4,1c-0.1,0.4-0.3,0.7-0.4,1.1l-0.5,1.3l-0.9,1.6l-1.4,3.2
		l-0.3,0.8l-0.1,0.4c-0.1,0.2-0.1,0.3-0.1,0.4c-0.2,0.4-0.4,0.9-0.7,1.4l-0.4,1c-0.1,0.4-0.3,0.7-0.4,1c-0.1,0.4-0.3,0.7-0.4,1.1
		l-0.3,0.8l-0.1,0.4c-0.2,0.3-0.2,0.6-0.4,0.9c-0.1,0.3-0.2,0.6-0.4,0.9l-1.7,4.2c-0.1,0.4-0.2,0.8-0.3,1.2
		c-0.1,0.3-0.1,0.5-0.1,0.7l-0.3,0.3l-1.4,4.6c-0.1,0.4-0.3,0.7-0.4,1c-0.1,0.2-0.1,0.4-0.2,0.7l-1.1,3.5l-0.2,0.9
		c-0.1,0.4-0.6,1.3-0.6,2.4l-0.2,0.7c-0.3,0.8-0.6,1.7-0.6,2.5l-0.2,0.7c-4,14.9-6.7,29.6-8,45.1v0.2c-0.6,7.8-0.8,15.7-0.8,23.4
		c0,11.1,0.4,19.2,1.4,27.1v2.5l0.3,0.3c0,0.7,0.1,1.4,0.3,2.2v0.9l0.1,0.5c0.2,0.6,0.2,1.4,0.2,2.2l0.3,0.9v0.1
		c0,0.4,0.1,0.9,0.1,1.4c0.1,0.4,0.1,0.7,0.1,1.1l0.3,1.1l0.3,1.7v0.8l0.1,0.5c0.1,0.4,0.1,0.7,0.2,1.1c0.1,0.4,0.2,0.8,0.3,1.2v0.8
		c4.7,27.2,13.6,53.6,26.4,78.3l0.2,0.5h0.2c0.1,0.2,0.2,0.5,0.4,0.7c0.2,0.4,0.4,0.7,0.5,1.1l0.6,1.1c0.1,0.2,0.3,0.4,0.4,0.7
		c0.2,0.3,0.4,0.6,0.6,1.2l0.6,1.2l1.4,2.3l0.2,0.1c0.1,0.4,0.4,0.7,0.5,1c0.2,0.3,0.4,0.6,0.4,0.9l0.5,0.8v0.4l0.2,0.2
		c0.4,0.4,0.6,0.9,0.9,1.4l5,8.5v-0.4c10.6,16.5,22.5,31.2,36.3,45c51.2,51.2,119.1,79.4,191.3,79.4s140.1-28.2,191.3-79.4
		c51-51,79.1-119,79.1-191.3c0-72.3-28.1-140.3-79.1-191.3C523.8,790.2,455.9,762.1,383.6,762.1z M150.4,906.8v97.8h-30
		C123.8,970.2,134,937.4,150.4,906.8z M150.3,1158.3c-15.9-29.4-26-61-29.8-93.8h29.8V1158.3z M634.8,1116.4
		c-5,14.9-11.2,29-18.3,41.9v-93.9h30C644.4,1082.4,640.5,1099.9,634.8,1116.4z M616.5,906.8c7.6,14.1,13.9,28.8,18.8,43.7
		c5.8,17.8,9.7,35.9,11.5,54.2h-30.3V906.8z M647.6,1010c0.4,6.7,1,14.9,1,22.4c0,8.1-0.4,16.2-1.3,26.3h-36.2v109.7
		c-11.2,18.4-24.7,35.7-40.1,51.4c-50.3,50.1-116.8,77.6-187.4,77.6c-70.9,0-137.4-27.5-187.4-77.5c-15.2-15.4-28.7-32.9-40.1-51.7
		v-109.5h-36.2c-0.4-5-0.8-9.6-1-13.9c-0.2-4.3-0.3-8.3-0.3-12.4c0-7.6,0.6-15.8,1-22.5H156V896.8c11.5-19.1,25.1-36.4,40.1-51.4
		c49.9-50.2,116.5-77.8,187.4-77.8c70.6,0,137.2,27.6,187.4,77.8c15.4,15.4,29,32.8,40.1,51.4V1010H647.6z"/>
	<path d="M383.6,733.5c-79.7,0-154.9,31.1-211.7,87.7c-56.5,56.5-87.6,131.5-87.6,211.4c0,80,31.1,155.1,87.6,211.7
		c56.8,56.5,132,87.6,211.7,87.6c79.7,0,154.9-31.1,211.7-87.7c56.5-56.5,87.7-131.7,87.7-211.7c0-79.8-31.1-154.9-87.7-211.4
		C538.5,764.6,463.3,733.5,383.6,733.5z M586,1234.9c-53.9,53.9-125.8,83.7-202.3,83.7c-76.5,0-148.4-29.7-202.3-83.7
		c-54.1-54.2-83.8-126.1-83.8-202.4c0-76.2,29.7-148.1,83.7-202.3c54.2-53.9,126.1-83.7,202.3-83.7s148.1,29.7,202.4,83.7
		c53.9,54.2,83.7,126.1,83.7,202.4C669.6,1108.8,639.9,1180.6,586,1234.9z"/>
	<path d="M518.6,1003.4c-21.3,0-38.5,17.3-38.5,38.5c0,21.3,17.3,38.5,38.5,38.5c21.3,0,38.5-17.2,38.5-38.5
		C557.1,1020.6,539.9,1003.4,518.6,1003.4z"/>
	<path d="M335.1,712.7h97.5c23.5,0,42.5-19.1,42.5-42.5V95.8c0-23.5-19.1-42.5-42.5-42.5h-97.5c-23.5,0-42.5,19.1-42.5,42.5v574.4
		C292.5,693.7,311.6,712.7,335.1,712.7z M299.6,95.8c0-19.6,15.9-35.5,35.5-35.5h97.5c19.6,0,35.5,15.9,35.5,35.5v574.4
		c0,19.6-15.9,35.5-35.5,35.5h-97.5c-19.6,0-35.5-15.9-35.5-35.5V95.8z"/>
	<path d="M335.4,701.3h96.9c17.3,0,31.4-14.1,31.4-31.4V96.1c0-17.3-14.1-31.4-31.4-31.4h-96.9c-17.3,0-31.4,14.1-31.4,31.4v573.8
		C304,687.2,318.1,701.3,335.4,701.3z M308,96.1c0-15.1,12.3-27.4,27.4-27.4h96.9c15.1,0,27.4,12.3,27.4,27.4v573.7
		c0,15.1-12.3,27.4-27.4,27.4h-96.9c-15.1,0-27.4-12.3-27.4-27.4V96.1z"/>
	<path d="M356.3,300.2h55c15.3,0,27.7-12.4,27.7-27.7v-55c0-15.3-12.4-27.7-27.7-27.7h-55c-15.3,0-27.7,12.4-27.7,27.7v55
		C328.6,287.7,341,300.2,356.3,300.2z M335.6,217.4c0-11.4,9.3-20.7,20.7-20.7h55c11.4,0,20.7,9.3,20.7,20.7v55
		c0,11.4-9.3,20.7-20.7,20.7h-55c-11.4,0-20.7-9.3-20.7-20.7V217.4z"/>
	<path d="M355.2,290.2h57.4c9.1,0,16.6-7.4,16.6-16.6v-57.4c0-9.2-7.4-16.6-16.6-16.6h-57.4c-9.1,0-16.6,7.4-16.6,16.6v57.4
		C338.6,282.8,346,290.2,355.2,290.2z M342.6,216.3c0-6.9,5.6-12.6,12.6-12.6h57.4c6.9,0,12.6,5.6,12.6,12.6v57.4
		c0,6.9-5.6,12.6-12.6,12.6h-57.4c-6.9,0-12.6-5.6-12.6-12.6V216.3z"/>
	<polygon points="353.9,671.3 343.1,655.2 337.9,655.2 337.9,679.3 342.8,679.3 342.8,663.6 353.5,679.3 358.8,679.3 358.8,655.2 
		353.9,655.2 	"/>
	<polygon points="366.1,668.7 377.6,668.7 377.6,664.6 366.1,664.6 366.1,659.3 378.4,659.3 378.4,655.2 361.5,655.2 361.5,679.3 
		378.9,679.3 378.9,675.2 366.1,675.2 	"/>
	<path d="M412.7,655.2l-9.6,22.5l-7.8-10.8l8.2-11.7h-6.2l-5.4,7.4l-5.1-7.4h-6.2l8.2,11.5l-9,12.6h6.4l5.9-8.3l5.8,8.3h4.6h1.8h3.8
		l2.2-5.5h10.5l2.3,5.5h5.8l-10.6-24.1H412.7z M385.7,678.5h-4.3l16.3-22.4h4.1L385.7,678.5z M411.9,669.8l3.6-9l3.6,9H411.9z"/>
</g>
</svg>
