<?xml version="1.0" encoding="UTF-8"?>
<svg width="402px" height="400px" viewBox="0 0 402 400" version="1.1" xmlns="http://www.w3.org/2000/svg" xmlns:xlink="http://www.w3.org/1999/xlink">
    <title>image</title>
    <g id="Page-1" stroke="none" stroke-width="1" fill="none" fill-rule="evenodd">
        <g id="image" transform="translate(-0.000682, 0.000044)">
            <path d="M234.740682,13.2429558 C235.691682,14.3019558 236.469682,15.5599558 237.036682,17.0549558 C237.228682,17.4619558 237.453682,17.9369558 237.706682,18.4699558 C239.961682,23.2099558 244.566682,32.6909558 248.510682,40.1419558 C249.775682,42.5309558 251.161682,44.7639558 252.495682,46.9119558 C257.499682,54.9709558 261.805682,61.9079558 258.020682,73.3549558 L258.017682,73.3539558 L174.807682,343.177956 L174.801682,343.194956 L167.644682,365.406956 L167.644682,365.412956 C164.344682,375.503956 158.988682,380.380956 152.871682,382.497956 C146.852682,384.580956 140.226682,383.914956 134.130682,382.949956 L134.108682,382.949956 L120.723682,380.603956 L120.723682,380.602956 L34.9136819,368.312956 L34.9156819,368.299956 C32.1026819,367.595956 18.4746819,353.462956 9.95568191,344.628956 C7.96568191,342.564956 6.26068191,340.796956 5.06468191,339.577956 C2.47768191,337.344956 1.03968191,334.601956 0.397681908,331.576956 C-0.863318092,325.636956 1.08468191,318.743956 3.29768191,312.581956 L6.38768191,303.956956 L6.38668191,303.956956 L96.3716819,37.4469558 L96.3886819,37.4029558 L103.309682,18.7569558 L103.307682,18.7559558 C110.894682,-2.09604417 120.787682,-0.981044172 138.379682,0.999955828 C139.644682,1.14195583 140.956682,1.28995583 142.140682,1.41595583 L142.140682,1.41895583 L218.302682,8.18195583 L218.302682,8.18195583 C224.769682,8.18195583 230.995682,9.07195583 234.740682,13.2429558 Z M17.6566819,341.826956 L25.4036819,343.007956 L25.4096819,343.012956 L93.0106819,353.467956 L109.961682,355.251956 L110.011682,355.257956 C119.603682,356.586956 125.209682,356.969956 128.994682,354.636956 C132.793682,352.294956 135.164682,346.997956 138.325682,336.946956 L138.325682,336.946956 L143.039682,321.111956 L143.044682,321.089956 L232.925682,36.2049558 L232.927682,36.2049558 C235.616682,27.6509558 235.831682,21.9559558 234.455682,18.2059558 L234.114682,17.4779558 L234.112682,17.4789558 C234.015682,17.2709558 233.933682,17.0749558 233.866682,16.8889558 C233.514682,16.2339558 233.103682,15.6509558 232.640682,15.1349558 C229.591682,11.7399558 224.088682,11.0159558 218.306682,11.0159558 L218.306682,11.0159558 L218.184682,11.0049558 L141.873682,4.22795583 L141.846682,4.22795583 C140.440682,4.07795583 139.241682,3.94295583 138.074682,3.81195583 C121.893682,1.98895583 112.793682,0.964955828 105.971682,19.7189558 L105.965682,19.7299558 L99.0566819,38.3429558 L99.0566819,38.3429558 L48.2936819,188.677956 L143.911682,201.583956 L144.756682,201.697956 L144.487682,202.504956 L139.617682,217.119956 L139.431682,217.676956 L138.853682,217.598956 L42.9006819,204.647956 L38.6446819,217.252956 L134.383682,230.174956 L135.228682,230.288956 L134.959682,231.096956 L130.089682,245.710956 L129.903682,246.267956 L129.325682,246.189956 L33.2526819,233.222956 L28.2676819,247.987956 L124.136682,260.927956 L124.981682,261.041956 L124.712682,261.849956 L119.842682,276.463956 L119.656682,277.020956 L119.078682,276.942956 L22.8746819,263.957956 L17.6096819,279.552956 L113.612682,292.509956 L114.457682,292.623956 L114.188682,293.431956 L109.318682,308.046956 L109.132682,308.603956 L108.554682,308.525956 L12.2176819,295.522956 L9.06768191,304.852956 L9.05668191,304.880956 L5.95568191,313.533956 C3.88268191,319.307956 2.04768191,325.719956 3.16568191,330.989956 C3.59768191,333.022956 4.49468191,334.906956 6.03068191,336.538956 C6.18368191,336.690956 6.35568191,336.862956 6.54468191,337.052956 C8.85168191,339.228956 12.4046819,340.907956 17.6566819,341.826956 Z" id="Shape" fill="#000000" fill-rule="nonzero"></path>
            <g id="Group" transform="translate(205.013000, 16.203569)">
                <path d="M171.985682,8.29738667 C172.936682,9.35638667 173.714682,10.6143867 174.281682,12.1093867 C174.473682,12.5163867 174.698682,12.9923867 174.951682,13.5243867 C177.206682,18.2643867 181.811682,27.7453867 185.755682,35.1963867 C187.020682,37.5853867 188.406682,39.8183867 189.740682,41.9663867 C194.744682,50.0263867 199.050682,56.9623867 195.265682,68.4093867 L195.263682,68.4083867 L119.224682,342.594387 L119.207682,342.649387 C118.242682,345.645387 117.347682,348.754387 116.482682,351.761387 C110.840682,371.376387 106.399682,386.811387 78.5486819,382.406387 L78.5476819,382.410387 L34.9026819,375.730387 L34.9046819,375.714387 C32.0676819,374.977387 18.4626819,360.868387 9.95568191,352.046387 C7.96568191,349.982387 6.26068191,348.214387 5.06468191,346.996387 C2.47768191,344.763387 1.03968191,342.020387 0.397681908,338.995387 C-0.863318092,333.055387 1.08468191,326.162387 3.29768191,320.000387 L6.37468191,311.415387 L6.37168191,311.414387 L89.2816819,37.4863867 L89.3146819,37.4033867 L96.2356819,18.7573867 L96.2346819,18.7563867 C103.819682,-2.09561333 113.712682,-0.981613325 131.305682,1.00038667 C132.570682,1.14238667 133.882682,1.29038667 135.066682,1.41638667 L135.066682,1.41938667 L155.547682,3.23838667 L155.547682,3.23838667 C162.014682,3.23738667 168.240682,4.12738667 171.985682,8.29738667 Z M17.6586819,349.246387 L25.4046819,350.427387 L25.4046819,350.428387 L54.4286819,354.715387 L54.4286819,354.716387 C64.0146819,356.044387 69.6166819,356.426387 73.4006819,354.094387 C77.1996819,351.752387 79.5706819,346.455387 82.7316819,336.404387 L82.7316819,336.404387 L87.4396819,320.586387 L87.4386819,320.586387 L138.430682,142.255387 L96.7086819,138.226387 L95.8206819,138.140387 L96.1046819,137.298387 L101.035682,122.692387 L101.215682,122.160387 L101.771682,122.214387 L143.020682,126.196387 L147.499682,110.534387 L107.365682,106.661387 L106.477682,106.575387 L106.761682,105.733387 L111.693682,91.1273867 L111.873682,90.5953867 L112.429682,90.6483867 L152.091682,94.4753867 L156.331682,79.6473867 L117.742682,75.9253867 L116.854682,75.8393867 L117.138682,74.9973867 L122.070682,60.3913867 L122.250682,59.8593867 L122.807682,59.9133867 L160.923682,63.5883867 L164.542682,50.9313867 L127.391682,47.3493867 L126.503682,47.2643867 L126.787682,46.4223867 L131.719682,31.8163867 L131.899682,31.2843867 L132.455682,31.3383867 L169.134682,34.8733867 L170.156682,31.3003867 L170.167682,31.2673867 C172.857682,22.7103867 173.073682,17.0133867 171.696682,13.2633867 L171.355682,12.5353867 L171.353682,12.5363867 C171.256682,12.3283867 171.174682,12.1323867 171.107682,11.9463867 C170.755682,11.2913867 170.344682,10.7083867 169.880682,10.1923867 C166.831682,6.79738667 161.329682,6.07338667 155.546682,6.07338667 L155.546682,6.07338667 L155.424682,6.06238667 L134.794682,4.23038667 L134.767682,4.23038667 C133.361682,4.08038667 132.162682,3.94538667 130.995682,3.81438667 C114.813682,1.99138667 105.714682,0.967386675 98.8926819,19.7213867 L98.8866819,19.7323867 L91.9916819,38.3063867 L91.9936819,38.3073867 L9.08368191,312.236387 L9.05568191,312.303387 L5.95568191,320.956387 C3.88268191,326.730387 2.04768191,333.142387 3.16568191,338.412387 C3.59768191,340.445387 4.49468191,342.329387 6.03068191,343.961387 C6.18368191,344.113387 6.35568191,344.285387 6.54468191,344.475387 C8.85368191,346.648387 12.4066819,348.326387 17.6586819,349.246387 Z" id="Shape" fill="#000000" fill-rule="nonzero"></path>
                <path d="M17.6586819,349.246387 L25.4046819,350.427387 L54.4286819,354.715387 C64.0146819,356.044387 69.6166819,356.426387 73.4006819,354.094387 C77.1996819,351.752387 79.5706819,346.455387 82.7316819,336.404387 L87.4396819,320.586387 L138.430682,142.255387 L96.7086819,138.226387 L95.8206819,138.140387 L96.1046819,137.298387 L101.035682,122.692387 L101.215682,122.160387 L101.771682,122.214387 L143.020682,126.196387 L147.499682,110.534387 L107.365682,106.661387 L106.477682,106.575387 L106.761682,105.733387 L111.693682,91.1273867 L111.873682,90.5953867 L112.429682,90.6483867 L152.091682,94.4753867 L156.331682,79.6473867 L117.742682,75.9253867 L116.854682,75.8393867 L117.138682,74.9973867 L122.070682,60.3913867 L122.250682,59.8593867 L122.807682,59.9133867 L160.923682,63.5883867 L164.542682,50.9313867 L127.391682,47.3493867 L126.503682,47.2643867 L126.787682,46.4223867 L131.719682,31.8163867 L131.899682,31.2843867 L132.455682,31.3383867 L169.134682,34.8733867 L170.156682,31.3003867 L170.167682,31.2673867 C172.857682,22.7103867 173.073682,17.0133867 171.696682,13.2633867 L171.355682,12.5353867 C171.256682,12.3283867 171.174682,12.1323867 171.107682,11.9463867 C170.755682,11.2913867 170.344682,10.7083867 169.880682,10.1923867 C166.831682,6.79738667 161.329682,6.07338667 155.546682,6.07338667 L155.424682,6.06238667 L134.794682,4.23038667 L134.767682,4.23038667 C133.361682,4.08038667 132.162682,3.94538667 130.995682,3.81438667 C114.813682,1.99138667 105.714682,0.967386675 98.8926819,19.7213867 L98.8866819,19.7323867 L91.9916819,38.3063867 L91.9936819,38.3073867 L9.08368191,312.236387 L9.05568191,312.303387 L5.95568191,320.956387 C3.88268191,326.730387 2.04768191,333.142387 3.16568191,338.412387 C3.59768191,340.445387 4.49468191,342.329387 6.03068191,343.961387 C6.18368191,344.113387 6.35568191,344.285387 6.54468191,344.475387 C8.85368191,346.648387 12.4066819,348.326387 17.6586819,349.246387 Z" id="Path"></path>
            </g>
        </g>
    </g>
</svg>