<?xml version="1.0" encoding="utf-8"?>
<!-- Generator: Adobe Illustrator 21.0.0, SVG Export Plug-In . SVG Version: 6.00 Build 0)  -->
<svg version="1.1" id="Layer_1" xmlns="http://www.w3.org/2000/svg" xmlns:xlink="http://www.w3.org/1999/xlink" x="0px" y="0px"
	 viewBox="0 0 766.8 1417.3" style="enable-background:new 0 0 766.8 1417.3;" xml:space="preserve">
<style type="text/css">
.pair {
	animation: pair 3s infinite;
}

@keyframes pair {
	0%, 100% {
		fill: rgba(255,255,255,0);
	}
	50% {
		fill: #0074CC;
	}
}
</style>
<g>
	<g id="XMLID_1_">
		<path d="M753,102.1v1214.2c0,48.2-39.2,87.4-87.4,87.4H101.2c-48.2,0-87.4-39.2-87.4-87.4V102.1c0-48.2,39.2-87.4,87.4-87.4h564.4
			C713.7,14.7,753,53.9,753,102.1z M738.9,1316.3V102.1c0-40.4-32.9-73.3-73.3-73.3H101.2c-40.4,0-73.3,32.9-73.3,73.3v1214.2
			c0,40.4,32.9,73.3,73.3,73.3h564.4C706,1389.6,738.9,1356.7,738.9,1316.3z"/>
		<path d="M595.3,821.1c56.6,56.5,87.7,131.6,87.7,211.4c0,80-31.2,155.2-87.7,211.7c-56.8,56.6-132,87.7-211.7,87.7
			s-154.9-31.1-211.7-87.6c-56.5-56.6-87.6-131.7-87.6-211.7c0-79.9,31.1-154.9,87.6-211.4c56.8-56.6,132-87.7,211.7-87.7
			S538.5,764.6,595.3,821.1z M669.7,1032.6c0-76.3-29.8-148.2-83.7-202.4c-54.3-54-126.2-83.7-202.4-83.7s-148.1,29.8-202.3,83.7
			c-54,54.2-83.7,126.1-83.7,202.3c0,76.3,29.7,148.2,83.8,202.4c53.9,54,125.8,83.7,202.3,83.7s148.4-29.8,202.3-83.7
			C639.9,1180.6,669.6,1108.8,669.7,1032.6z"/>
		<path d="M574.5,841.4c51,51,79.1,119,79.1,191.3c0,72.3-28.1,140.3-79.1,191.3c-51.2,51.2-119.1,79.4-191.3,79.4
			s-140.1-28.2-191.3-79.4c-13.8-13.8-25.7-28.5-36.3-45v0.4l-5-8.5c-0.3-0.5-0.5-1-0.9-1.4l-0.2-0.2v-0.4l-0.5-0.8
			c0-0.3-0.2-0.6-0.4-0.9c-0.1-0.3-0.4-0.6-0.5-1l-0.2-0.1l-1.4-2.3l-0.6-1.2c-0.2-0.6-0.4-0.9-0.6-1.2c-0.1-0.3-0.3-0.5-0.4-0.7
			l-0.6-1.1c-0.1-0.4-0.3-0.7-0.5-1.1c-0.2-0.2-0.3-0.5-0.4-0.7h-0.2l-0.2-0.5c-12.8-24.7-21.7-51.1-26.4-78.3v-0.8
			c-0.1-0.4-0.2-0.8-0.3-1.2c-0.1-0.4-0.1-0.7-0.2-1.1l-0.1-0.5v-0.8l-0.3-1.7l-0.3-1.1c0-0.4,0-0.7-0.1-1.1c0-0.5-0.1-1-0.1-1.4
			v-0.1l-0.3-0.9c0-0.8,0-1.6-0.2-2.2l-0.1-0.5v-0.9c-0.2-0.8-0.3-1.5-0.3-2.2l-0.3-0.3v-2.5c-1-7.9-1.4-16-1.4-27.1
			c0-7.7,0.2-15.6,0.8-23.4v-0.2c1.3-15.5,4-30.2,8-45.1l0.2-0.7c0-0.8,0.3-1.7,0.6-2.5l0.2-0.7c0-1.1,0.5-2,0.6-2.4l0.2-0.9
			l1.1-3.5c0.1-0.3,0.1-0.5,0.2-0.7c0.1-0.3,0.3-0.6,0.4-1l1.4-4.6l0.3-0.3c0-0.2,0-0.4,0.1-0.7c0.1-0.4,0.2-0.8,0.3-1.2l1.7-4.2
			c0.2-0.3,0.3-0.6,0.4-0.9c0.2-0.3,0.2-0.6,0.4-0.9l0.1-0.4l0.3-0.8c0.1-0.4,0.3-0.7,0.4-1.1c0.1-0.3,0.3-0.6,0.4-1l0.4-1
			c0.3-0.5,0.5-1,0.7-1.4c0-0.1,0-0.2,0.1-0.4l0.1-0.4l0.3-0.8l1.4-3.2l0.9-1.6l0.5-1.3c0.1-0.4,0.3-0.7,0.4-1.1
			c0.1-0.3,0.3-0.6,0.4-1l0.1-0.2l0.5-0.8c0.2-0.4,0.5-1.2,0.7-1.9l0.1-0.2l0.5-0.8l2.1-4.7l0.9-1.4c0.2-0.5,0.5-1,0.7-1.7l0.6-1.1
			c0.2-0.5,0.5-1,0.7-1.7l0.2-0.6h0.3l0.3-0.5l0.1-0.1l1.3-2.5c0.2-0.3,0.4-0.6,0.6-1c0.2-0.3,0.4-0.7,0.5-0.9l0.6-1.5l1.1-1.4
			l0.9-1.7c0.2-0.2,0.4-0.7,0.6-1.1l0.7-1.6c0.4-0.5,0.6-0.9,0.9-1.4l5.1-8.6v0.4c10.7-16.5,22.5-31.2,36.3-45
			c51-51,119-79.1,191.3-79.1S523.8,790.2,574.5,841.4z M648.6,1032.4c0-7.5-0.6-15.7-1-22.4H611V896.8
			c-11.1-18.6-24.7-36-40.1-51.4c-50.2-50.2-116.8-77.8-187.4-77.8c-70.9,0-137.5,27.6-187.4,77.8c-15,15-28.6,32.3-40.1,51.4v113.1
			h-36.4c-0.4,6.7-1,14.9-1,22.5c0,4.1,0.1,8.1,0.3,12.4c0.2,4.3,0.6,8.9,1,13.9h36.2v109.5c11.4,18.8,24.9,36.3,40.1,51.7
			c50,50,116.5,77.5,187.4,77.5c70.6,0,137.1-27.5,187.4-77.6c15.4-15.7,28.9-33,40.1-51.4v-109.7h36.2
			C648.2,1048.6,648.6,1040.5,648.6,1032.4z M616.5,1004.7h30.3c-1.8-18.3-5.7-36.4-11.5-54.2c-4.9-14.9-11.2-29.6-18.8-43.7V1004.7
			z M646.5,1064.4h-30v93.9c7.1-12.9,13.3-27,18.3-41.9C640.5,1099.9,644.4,1082.4,646.5,1064.4z M150.4,1004.6v-97.8
			c-16.4,30.6-26.6,63.4-30,97.8H150.4z M150.3,1158.3v-93.8h-29.8C124.3,1097.3,134.4,1128.9,150.3,1158.3z"/>
		<path d="M518.6,1003.4c21.3,0,38.5,17.2,38.5,38.5c0,21.3-17.2,38.5-38.5,38.5c-21.2,0-38.5-17.2-38.5-38.5
			C480.1,1020.7,497.3,1003.4,518.6,1003.4z"/>
		<path d="M475.1,95.8v574.4c0,23.4-19,42.5-42.5,42.5h-97.5c-23.5,0-42.6-19-42.5-42.5V95.8c0-23.4,19-42.5,42.5-42.5h97.5
			C456,53.3,475.1,72.3,475.1,95.8z M468.1,670.2V95.8c0-19.6-15.9-35.5-35.5-35.5h-97.5c-19.6,0-35.5,15.9-35.5,35.5v574.4
			c0,19.6,15.9,35.5,35.5,35.5h97.5C452.2,705.7,468.1,689.8,468.1,670.2z"/>
		<path d="M463.7,96.1v573.8c0,17.3-14.1,31.4-31.4,31.4h-96.9c-17.3,0-31.4-14.1-31.4-31.4V96.1c0-17.3,14.1-31.4,31.4-31.4h96.9
			C449.6,64.7,463.7,78.8,463.7,96.1z M459.7,669.8V96.1c0-15.1-12.3-27.4-27.4-27.4h-96.9C320.3,68.7,308,81,308,96.1v573.7
			c0,15.1,12.3,27.4,27.4,27.4h96.9C447.4,697.2,459.7,684.9,459.7,669.8z"/>
		<path d="M439,217.5v55c0,15.3-12.4,27.7-27.7,27.7h-55c-15.3,0-27.7-12.5-27.7-27.7v-55c0-15.3,12.4-27.7,27.7-27.7h55
			C426.6,189.8,439,202.2,439,217.5z M432,272.4v-55c0-11.4-9.3-20.7-20.7-20.7h-55c-11.4,0-20.7,9.3-20.7,20.7v55
			c0,11.4,9.3,20.7,20.7,20.7h55C422.7,293.1,432,283.8,432,272.4z"/>
		<path d="M429.2,216.2v57.4c0,9.2-7.5,16.6-16.6,16.6h-57.4c-9.2,0-16.6-7.4-16.6-16.6v-57.4c0-9.2,7.5-16.6,16.6-16.6h57.4
			C421.8,199.6,429.2,207,429.2,216.2z M425.2,273.7v-57.4c0-7-5.7-12.6-12.6-12.6h-57.4c-7,0-12.6,5.7-12.6,12.6v57.4
			c0,7,5.7,12.6,12.6,12.6h57.4C419.6,286.3,425.2,280.6,425.2,273.7z"/>
		<path d="M403.1,677.7l9.6-22.5h5.6l10.6,24.1h-5.8l-2.3-5.5h-10.5l-2.2,5.5h-3.8h-1.8h-4.6l-5.8-8.3l-5.9,8.3h-0.5v-0.8l16.1-22.4
			h-4.1l-0.7-0.5l0.3-0.4h6.2l-8.2,11.7L403.1,677.7z M419.1,669.8l-3.6-9l-3.6,9H419.1z"/>
		<polygon points="391.9,662.6 397,655.6 397.7,656.1 381.4,678.5 385.7,678.5 385.7,679.3 379.8,679.3 388.8,666.7 380.6,655.2 
			386.8,655.2 		"/>
		<polygon points="378.9,675.2 378.9,679.3 361.5,679.3 361.5,655.2 378.4,655.2 378.4,659.3 366.1,659.3 366.1,664.6 377.6,664.6 
			377.6,668.7 366.1,668.7 366.1,675.2 		"/>
		<polygon points="358.8,655.2 358.8,679.3 353.5,679.3 342.8,663.6 342.8,679.3 337.9,679.3 337.9,655.2 343.1,655.2 353.9,671.3 
			353.9,655.2 		"/>
		<path d="M247.3,994c21.3,0,38.6,17.2,38.5,38.5c0,21.2-17.2,38.5-38.5,38.5s-38.5-17.2-38.5-38.5C208.8,1011.2,226,994,247.3,994z
			"/>
	</g>
</g>
<path class="pair" d="M412.6,205.7h-57.4c-5.8,0-10.6,4.8-10.6,10.6v57.4c0,5.8,4.8,10.6,10.6,10.6h57.4c5.8,0,10.6-4.8,10.6-10.6
	v-57.4C423.2,210.5,418.4,205.7,412.6,205.7z"/>
</svg>
