<?xml version="1.0" encoding="utf-8"?>
<!-- Generator: Adobe Illustrator 21.0.0, SVG Export Plug-In . SVG Version: 6.00 Build 0)  -->
<svg version="1.1" id="Layer_1" xmlns="http://www.w3.org/2000/svg" xmlns:xlink="http://www.w3.org/1999/xlink" x="0px" y="0px"
	 viewBox="0 0 1417.3 396.4" style="enable-background:new 0 0 1417.3 396.4;" xml:space="preserve">
<g>
	<polygon points="258.2,260.9 93.4,14.8 14.3,14.8 14.3,383.3 89.8,383.3 89.8,143 252.1,383.3 333.7,383.3 333.7,14.8 258.2,14.8 	
		"/>
	<polygon points="444.7,220.9 620,220.9 620,158.9 444.7,158.9 444.7,77.2 633.1,77.2 633.1,14.8 374.3,14.8 374.3,383.3 
		639.7,383.3 639.7,321.2 444.7,321.2 	"/>
	<path d="M1242.1,14.8h-86l-146.4,343.9l-119.8-165l125.2-178.9H921l-82.5,113.5L761.1,14.8h-95L790.8,191L653.2,383.3h97.5
		l90.5-126.1l88.3,126.1h69.8h28.2h58l33.2-83.7h160.9l35.2,83.7h88.4L1242.1,14.8z M744,370.2h-65L927.6,28h62L744,370.2z
		 M1143.7,237.5l54.4-136.7l55.5,136.7H1143.7z"/>
</g>
</svg>
