<?xml version="1.0" encoding="UTF-8"?>
<!-- Creator: CorelDRAW X7 -->
<svg width="364mm" height="1e3mm" clip-rule="evenodd" fill-rule="evenodd" image-rendering="optimizeQuality" shape-rendering="geometricPrecision" text-rendering="geometricPrecision" animation:channel1="" animation:channel2="" animation:channel3="" animation:channel4="" version="1.1" viewBox="0 0 4271 11733" xml:space="preserve" xmlns="http://www.w3.org/2000/svg" xmlns:animation="-">
 <defs>
  <style type="text/css">
   <![CDATA[
    .str0 {stroke:#2B2A29;stroke-width:2.34669}
    .fil3 {fill:#FEFEFE}
    .fil1 {fill:#2B2A29}
    .fil2 {fill:#FEFEFE;fill-rule:nonzero}
    .fil0 {fill:#2B2A29;fill-rule:nonzero}
    .groupswitch{
     -webkit-transition: 0.3s ease-in-out;
     -moz-transition: 0.3s ease-in-out;
     -o-transition: 0.3s ease-in-out;
     transition: 0.3s ease-in-out;
    }
    .channel2 .groupswitch {
		transform:translateX(300px);
    }
    .channel3 .groupswitch {
		transform:translateX(600px);
    }
    .channel4 .groupswitch {
		transform:translateX(900px);
    }
   ]]>
  </style>
 </defs>
 <g transform="translate(0 -.05865)">
  
  <path class="fil0" d="m734 0h2803c202 0 386 65.781 518 170.4 133 105.41 216 251.23 216 411.33v10570c0 160.09-83 305.92-216 411.33-132 105.41-316 170.4-518 170.4h-2803c-202 0-386-64.988-519-170.4-132-105.41-215-251.23-215-411.33v-10570c0-160.09 83-305.92 215-411.33 133-104.61 317-170.4 519-170.4zm2803 55.478h-2803c-183 0-348 59.44-469 154.54-120 95.897-195 226.67-195 371.7v10570c0 145.03 75 276.6 195 371.7 121 95.104 286 154.54 469 154.54h2803c183 0 348-59.441 469-154.54 120-95.105 195-226.67 195-371.7v-10570c0-145.03-75-275.8-195-371.7-121-95.104-286-154.54-469-154.54z" stroke-width=".89025"/>
  <path class="fil0" d="m997 7314h756c41 0 78 17 105 44s43 64 43 105v94c0 41-16 78-43 105s-64 44-105 44h-756c-40 0-77-17-104-44s-44-64-44-105v-94c0-41 17-78 44-105s64-44 104-44zm756 3h-756c-40 0-76 16-103 43-26 26-42 62-42 103v94c0 41 16 77 42 103 27 27 63 43 103 43h756c40 0 77-16 103-43 27-26 43-62 43-103v-94c0-41-16-77-43-103-26-27-63-43-103-43z"/>
  <path class="fil0" d="m997 6223h756c41 0 78 17 105 44s43 64 43 104v95c0 41-16 78-43 105s-64 43-105 43h-756c-40 0-77-16-104-43s-44-64-44-105v-95c0-40 17-77 44-104s64-44 104-44zm756 3h-756c-40 0-76 16-103 42-26 27-42 63-42 103v95c0 40 16 77 42 103 27 27 63 43 103 43h756c40 0 77-16 103-43 27-26 43-63 43-103v-95c0-40-16-76-43-103-26-26-63-42-103-42z"/>
  <path class="fil0" d="m997 5132h756c41 0 78 17 105 43 27 27 43 64 43 105v95c0 41-16 78-43 105-27 26-64 43-105 43h-756c-40 0-77-17-104-43-27-27-44-64-44-105v-95c0-41 17-78 44-105 27-26 64-43 104-43zm756 2h-756c-40 0-76 17-103 43-26 27-42 63-42 103v95c0 40 16 77 42 103 27 26 63 43 103 43h756c40 0 77-17 103-43 27-26 43-63 43-103v-95c0-40-16-76-43-103-26-26-63-43-103-43z"/>
  <path class="fil0" d="m997 4041h756c41 0 78 16 105 43s43 64 43 105v95c0 41-16 78-43 104-27 27-64 44-105 44h-756c-40 0-77-17-104-44-27-26-44-63-44-104v-95c0-41 17-78 44-105s64-43 104-43zm756 2h-756c-40 0-76 17-103 43-26 26-42 63-42 103v95c0 40 16 76 42 103 27 26 63 43 103 43h756c40 0 77-17 103-43 27-27 43-63 43-103v-95c0-40-16-77-43-103-26-26-63-43-103-43z"/>
  <path class="fil0" d="m997 2950h756c41 0 78 16 105 43s43 64 43 105v95c0 40-16 77-43 104s-64 44-105 44h-756c-40 0-77-17-104-44s-44-64-44-104v-95c0-41 17-78 44-105s64-43 104-43zm756 2h-756c-40 0-76 16-103 43-26 26-42 63-42 103v95c0 40 16 76 42 103 27 26 63 42 103 42h756c40 0 77-16 103-42 27-27 43-63 43-103v-95c0-40-16-77-43-103-26-27-63-43-103-43z"/>
  <circle class="fil1 str0" cx="2125" cy="6996" r="200"/>
  <circle class="fil1 str0" cx="2125" cy="5905" r="200"/>
  <circle class="fil1 str0" cx="2125" cy="4813" r="200"/>
  <circle class="fil1 str0" cx="2125" cy="3722" r="200"/>
  <circle class="fil1 str0" cx="2125" cy="2631" r="200"/>
  <path class="fil0" d="m1367 4679c37 0 71 15 96 39 25 25 40 58 40 95 0 38-15 71-40 96-25 24-59 39-96 39-38 0-72-15-96-39-25-25-40-58-40-96 0-37 15-70 40-95 24-24 58-39 96-39zm16 19v231c26-3 50-15 68-33 21-21 34-50 34-83 0-32-13-61-34-82-18-18-42-30-68-33zm-32 231v-231c-26 3-50 15-68 33-21 21-35 50-35 82 0 33 14 62 35 83 18 18 42 30 68 33z"/>
  <path class="fil0" d="m1367 2497c37 0 71 15 96 39s40 58 40 95-15 71-40 95-59 40-96 40c-38 0-72-16-96-40-25-24-40-58-40-95s15-71 40-95c24-24 58-39 96-39zm16 18v232c26-4 50-16 68-33 21-21 34-51 34-83s-13-61-34-83c-18-17-42-29-68-33zm-32 232v-232c-26 4-50 16-68 33-21 22-35 51-35 83s14 62 35 83c18 17 42 29 68 33z"/>
  <path class="fil0" d="m2896 6866c36 0 68 15 92 38 23 24 38 56 38 92s-15 68-38 92c-24 23-56 38-92 38s-69-15-92-38c-24-24-38-56-38-92s14-68 38-92c23-23 56-38 92-38zm79 50c-20-20-48-32-79-32s-59 12-80 32c-20 21-33 49-33 80s13 59 33 79c21 21 49 33 80 33s59-12 79-33c20-20 33-48 33-79s-13-59-33-80z"/>
  <path class="fil0" d="m2896 5775c36 0 68 14 92 38 23 23 38 56 38 92s-15 68-38 92c-24 23-56 38-92 38s-69-15-92-38c-24-24-38-56-38-92s14-69 38-92c23-24 56-38 92-38zm79 50c-20-20-48-33-79-33s-59 13-80 33c-20 21-33 49-33 80s13 59 33 79c21 20 49 33 80 33s59-13 79-33 33-48 33-79-13-59-33-80z"/>
  <path class="fil0" d="m2896 4684c36 0 68 14 92 38 23 23 38 56 38 91 0 36-15 69-38 92-24 24-56 38-92 38s-69-14-92-38c-24-23-38-56-38-92 0-35 14-68 38-91 23-24 56-38 92-38zm79 50c-20-20-48-33-79-33s-59 13-80 33c-20 20-33 48-33 79 0 32 13 60 33 80 21 20 49 33 80 33s59-13 79-33 33-48 33-80c0-31-13-59-33-79z"/>
  <path class="fil0" d="m2896 3592c36 0 68 15 92 38 23 24 38 56 38 92s-15 69-38 92c-24 24-56 38-92 38s-69-14-92-38c-24-23-38-56-38-92s14-68 38-92c23-23 56-38 92-38zm79 51c-20-21-48-33-79-33s-59 12-80 33c-20 20-33 48-33 79s13 59 33 80c21 20 49 33 80 33s59-13 79-33c20-21 33-49 33-80s-13-59-33-79z"/>
  <path class="fil0" d="m2896 2501c36 0 68 15 92 38 23 24 38 56 38 92s-15 68-38 92c-24 23-56 38-92 38s-69-15-92-38c-24-24-38-56-38-92s14-68 38-92c23-23 56-38 92-38zm79 51c-20-21-48-33-79-33s-59 12-80 33c-20 20-33 48-33 79s13 59 33 80c21 20 49 32 80 32s59-12 79-32c20-21 33-49 33-80s-13-59-33-79z"/>
  <path class="fil1" d="m1367 6861c37 0 71 15 96 40 25 24 40 58 40 95s-15 71-40 95-59 39-96 39c-38 0-72-15-96-39-25-24-40-58-40-95s15-71 40-95c24-25 58-40 96-40zm16 19v232c26-4 50-16 68-33 21-22 34-51 34-83s-13-62-34-83c-18-17-42-29-68-33zm-32 232v-232c-26 4-50 16-68 33-21 21-35 51-35 83s14 61 35 83c18 17 42 29 68 33z"/>
  <path class="fil1" d="m1367 5770c37 0 71 15 96 40 25 24 40 58 40 95s-15 70-40 95c-25 24-59 39-96 39-38 0-72-15-96-39-25-25-40-58-40-95s15-71 40-95c24-25 58-40 96-40zm16 19v232c26-4 50-16 68-34 21-21 34-50 34-82 0-33-13-62-34-83-18-18-42-30-68-33zm-32 232v-232c-26 3-50 15-68 33-21 21-35 50-35 83 0 32 14 61 35 82 18 18 42 30 68 34z"/>
  <path class="fil0" d="m1367 3588c37 0 71 15 96 39 25 25 40 58 40 95s-15 71-40 95c-25 25-59 40-96 40-38 0-72-15-96-40-25-24-40-58-40-95s15-70 40-95c24-24 58-39 96-39zm17 19v231c26-4 49-16 67-33 21-21 34-50 34-83 0-32-13-61-34-82-18-18-41-30-67-33zm-34 231v-231c-26 3-49 15-67 33-21 21-35 50-35 82 0 33 14 62 35 83 18 17 41 29 67 33z"/>
  <path class="fil2" d="m2212 7073c-6 8-16 16-29 22-14 7-30 10-51 10-26 0-47-8-64-24-16-16-24-37-24-63v-44c0-26 8-47 24-63 15-16 36-24 61-24 26 0 45 6 59 19 14 12 21 29 21 49v1h-40c-1-11-5-20-11-27-6-6-16-9-28-9-13 0-24 5-32 15s-12 23-12 38v45c0 16 4 29 13 39 8 10 19 15 33 15 10 0 18-1 24-3s11-4 14-7v-39h-38v-30h80z"/>
  <path class="fil2" d="m2164 5932h24v33h-24v46h-42v-46h-87l-2-26 88-141h43zm-91 0h49v-77h-1l-4 6z"/>
  <path class="fil2" d="m2099 4795h24c10 0 17-2 22-8 5-5 7-12 7-22 0-8-2-15-7-20s-12-8-21-8c-8 0-15 2-20 7-6 5-8 11-8 18h-42c-1-17 6-31 19-42 13-10 30-16 50-16 22 0 39 5 52 16 13 10 20 25 20 45 0 9-3 18-9 26-6 9-14 15-24 20 12 4 21 10 27 19s9 19 9 30c0 20-7 35-21 46s-32 17-54 17c-20 0-37-6-51-16s-21-25-21-44l1-1h41c0 8 3 15 9 20s13 8 22 8c10 0 17-3 23-8 6-6 9-13 9-22 0-11-3-20-9-25-5-5-14-8-24-8h-24z"/>
  <path class="fil2" d="m2201 3829h-145v-28l68-74c10-11 17-21 21-29 5-8 7-15 7-22 0-9-3-16-7-22-5-5-12-8-21-8-10 0-17 3-22 10s-8 15-8 27h-41l-1-1c0-20 6-36 19-49s31-20 53-20 39 6 52 17c12 11 18 27 18 46 0 12-3 24-10 35s-19 25-35 43l-38 41v1h90z"/>
  <polygon class="fil2" points="2109 2562 2066 2562 2066 2532 2152 2525 2152 2737 2109 2737"/>
  <path class="fil0" d="m1655 8156c14 0 27 6 37 15 9 10 15 23 15 37 0 15-6 28-15 37-10 10-23 16-37 16-15 0-28-6-37-16-10-9-16-22-16-37 0-14 6-27 16-37 9-9 22-15 37-15zm32 20c-8-9-20-14-32-14-13 0-25 5-33 14-9 8-14 20-14 32 0 13 5 25 14 33 8 9 20 14 33 14 12 0 24-5 32-14 9-8 14-20 14-33 0-12-5-24-14-32z"/>
  <path class="fil0" d="m1970 8156c14 0 27 6 37 15 9 10 15 23 15 37 0 15-6 28-15 37-10 10-23 16-37 16-15 0-28-6-37-16-10-9-16-22-16-37 0-14 6-27 16-37 9-9 22-15 37-15zm32 20c-8-9-20-14-32-14-13 0-25 5-33 14-9 8-14 20-14 32 0 13 5 25 14 33 8 9 20 14 33 14 12 0 24-5 32-14 9-8 14-20 14-33 0-12-5-24-14-32z"/>
  <path class="fil0" d="m2283 8156c14 0 27 6 37 15 9 10 15 23 15 37 0 15-6 28-15 37-10 10-23 16-37 16-15 0-28-6-38-16-9-9-15-22-15-37 0-14 6-27 15-37 10-9 23-15 38-15zm32 20c-8-9-20-14-32-14-13 0-25 5-33 14-9 8-14 20-14 32 0 13 5 25 14 33 8 9 20 14 33 14 12 0 24-5 32-14 9-8 14-20 14-33 0-12-5-24-14-32z"/>
  <path class="fil0" d="m2597 8156c15 0 28 6 37 15 10 10 16 23 16 37 0 15-6 28-16 37-9 10-22 16-37 16-14 0-27-6-37-16-9-9-15-22-15-37 0-14 6-27 15-37 10-9 23-15 37-15zm33 20c-8-9-20-14-33-14-12 0-24 5-32 14-9 8-14 20-14 32 0 13 5 25 14 33 8 9 20 14 32 14 13 0 25-5 33-14 9-8 14-20 14-33 0-12-5-24-14-32z"/>
  <polygon class="fil0" points="1645 7961 1645 8103 1664 8103 1664 7961"/>
  <polygon class="fil0" points="1988 7961 1988 8103 2007 8103 2007 7961"/>
  <polygon class="fil0" points="1933 7961 1933 8103 1951 8103 1951 7961"/>
  <polygon class="fil0" points="2328 7961 2328 8103 2347 8103 2347 7961"/>
  <polygon class="fil0" points="2273 7961 2273 8103 2292 8103 2292 7961"/>
  <polygon class="fil0" points="2218 7961 2218 8103 2237 8103 2237 7961"/>
  <path class="fil0" d="m2636 8103 55-142h-21l-37 103c-3 8-5 16-7 23-2-8-5-15-8-23l-38-103h-19l55 142z"/>
  <polygon class="fil0" points="2522 7961 2522 8103 2541 8103 2541 7961"/>
  <rect class="fil1 str0" x="855" y="7316" width="1023" height="360" rx="143" ry="136" animation:group="1" animation:state="1" animation:unit="00"/>
  <rect class="fil1 str0" x="855" y="6224" width="1023" height="360" rx="143" ry="136" animation:group="0" animation:state="1" animation:unit="11"/>
  <rect class="fil1 str0" x="855" y="5133" width="1023" height="360" rx="143" ry="136" animation:group="0" animation:state="1" animation:unit="10"/>
  <rect class="fil1 str0" x="855" y="4042" width="1023" height="360" rx="143" ry="136" animation:group="0" animation:state="1" animation:unit="01"/>
  <rect class="fil1" x="855" y="2951" width="1023" height="360" rx="143" ry="136" animation:group="0" animation:initial="true" animation:state="1" animation:unit="00"/>
  <path class="fil0" d="m2518 7314h756c40 0 77 17 104 44s44 64 44 105v94c0 41-17 78-44 105s-64 44-104 44h-756c-41 0-78-17-105-44s-43-64-43-105v-94c0-41 16-78 43-105s64-44 105-44zm756 3h-756c-40 0-77 16-103 43-27 26-43 62-43 103v94c0 41 16 77 43 103 26 27 63 43 103 43h756c40 0 76-16 103-43 26-26 42-62 42-103v-94c0-41-16-77-42-103-27-27-63-43-103-43z"/>
  <path class="fil0" d="m2518 6223h756c40 0 77 17 104 44s44 64 44 104v95c0 41-17 78-44 105s-64 43-104 43h-756c-41 0-78-16-105-43s-43-64-43-105v-95c0-40 16-77 43-104s64-44 105-44zm756 3h-756c-40 0-77 16-103 42-27 27-43 63-43 103v95c0 40 16 77 43 103 26 27 63 43 103 43h756c40 0 76-16 103-43 26-26 42-63 42-103v-95c0-40-16-76-42-103-27-26-63-42-103-42z"/>
  <path class="fil0" d="m2518 5132h756c40 0 77 17 104 43 27 27 44 64 44 105v95c0 41-17 78-44 105-27 26-64 43-104 43h-756c-41 0-78-17-105-43-27-27-43-64-43-105v-95c0-41 16-78 43-105 27-26 64-43 105-43zm756 2h-756c-40 0-77 17-103 43-27 27-43 63-43 103v95c0 40 16 77 43 103 26 26 63 43 103 43h756c40 0 76-17 103-43 26-26 42-63 42-103v-95c0-40-16-76-42-103-27-26-63-43-103-43z"/>
  <path class="fil0" d="m2518 4041h756c40 0 77 16 104 43s44 64 44 105v95c0 41-17 78-44 104-27 27-64 44-104 44h-756c-41 0-78-17-105-44-27-26-43-63-43-104v-95c0-41 16-78 43-105s64-43 105-43zm756 2h-756c-40 0-77 17-103 43-27 26-43 63-43 103v95c0 40 16 76 43 103 26 26 63 43 103 43h756c40 0 76-17 103-43 26-27 42-63 42-103v-95c0-40-16-77-42-103-27-26-63-43-103-43z"/>
  <path class="fil0" d="m2518 2950h756c40 0 77 16 104 43s44 64 44 105v95c0 40-17 77-44 104s-64 44-104 44h-756c-41 0-78-17-105-44s-43-64-43-104v-95c0-41 16-78 43-105s64-43 105-43zm756 2h-756c-40 0-77 16-103 43-27 26-43 63-43 103v95c0 40 16 76 43 103 26 26 63 42 103 42h756c40 0 76-16 103-42 26-27 42-63 42-103v-95c0-40-16-77-42-103-27-27-63-43-103-43z"/>
  <rect class="fil1 str0" x="2376" y="7316" width="1023" height="360" rx="143" ry="136" animation:group="1" animation:state="0" animation:unit="00"/>
  <rect class="fil1 str0" x="2376" y="6224" width="1023" height="360" rx="143" ry="136" animation:group="0" animation:state="0" animation:unit="11"/>
  <rect class="fil1 str0" x="2376" y="5133" width="1023" height="360" rx="143" ry="136" animation:group="0" animation:state="0" animation:unit="10"/>
  <rect class="fil1 str0" x="2376" y="4042" width="1023" height="360" rx="143" ry="136" animation:group="0" animation:state="0" animation:unit="01"/>
  <rect class="fil1" x="2376" y="2951" width="1023" height="360" rx="143" ry="136" animation:group="0" animation:state="0" animation:unit="00"/>
  <path class="fil1 str0" d="m1658 8729c-117 0-211-91-211-204 0-112 94-203 211-203h947c117 0 211 91 211 203 0 113-94 204-211 204z" fill-opacity=".4"/>
  <path class="fil1 str0" d="m1658 8729c-117 0-211-91-211-204 0-112 94-203 211-203h947c117 0 211 91 211 203 0 113-94 204-211 204z" animation:group="1"/>
  <g animation:channel="01"><g animation:channel="10"><g animation:channel="11">
  <ellipse class="fil3 str0 groupswitch" cx="1658" cy="8525" rx="194" ry="187" style="-moz-transition:0.3s ease-in-out;-o-transition:0.3s ease-in-out;-webkit-transition:0.3s ease-in-out" animation:group="0"/>
 </g></g></g>
 </g>
</svg>
