<?xml version="1.0" encoding="UTF-8"?>
<svg width="45px" height="87px" viewBox="0 0 45 87" version="1.1" xmlns="http://www.w3.org/2000/svg" xmlns:xlink="http://www.w3.org/1999/xlink">
    <title>icon</title>
    <g id="Page-1" stroke="none" stroke-width="1" fill="none" fill-rule="evenodd">
        <g id="icon" transform="translate(22.325500, 43.600500) rotate(-180.000000) translate(-22.325500, -43.600500) translate(0.000000, 0.711000)" fill="#000000" fill-rule="nonzero">
            <path d="M23.067,77.275 C23.491,77.275 23.876,77.447 24.154,77.725 C24.432,78.003 24.604,78.387 24.604,78.812 C24.604,79.236 24.432,79.621 24.154,79.899 C23.876,80.177 23.491,80.349 23.067,80.349 C22.642,80.349 22.258,80.177 21.98,79.899 C21.702,79.621 21.53,79.236 21.53,78.812 C21.53,78.388 21.702,78.003 21.98,77.725 C22.258,77.447 22.643,77.275 23.067,77.275" id="Path"></path>
            <path d="M24.285,77.594 C23.973,77.282 23.543,77.09 23.067,77.09 C22.591,77.09 22.161,77.283 21.849,77.594 C21.537,77.906 21.344,78.336 21.344,78.812 C21.344,79.288 21.537,79.718 21.849,80.03 C22.161,80.342 22.591,80.535 23.067,80.535 C23.542,80.535 23.973,80.342 24.285,80.03 C24.597,79.718 24.789,79.288 24.789,78.812 C24.789,78.337 24.597,77.906 24.285,77.594 M23.067,76.82 C23.617,76.82 24.115,77.043 24.476,77.403 C24.836,77.764 25.059,78.262 25.059,78.812 C25.059,79.362 24.836,79.86 24.476,80.221 C24.115,80.582 23.617,80.805 23.067,80.805 C22.517,80.805 22.019,80.582 21.659,80.221 C21.298,79.861 21.075,79.363 21.075,78.812 C21.075,78.262 21.298,77.764 21.659,77.403 C22.019,77.043 22.517,76.82 23.067,76.82 Z" id="Shape"></path>
            <path d="M24.285,77.594 C23.973,77.282 23.543,77.09 23.067,77.09 C22.591,77.09 22.161,77.283 21.849,77.594 C21.537,77.906 21.344,78.336 21.344,78.812 C21.344,79.288 21.537,79.718 21.849,80.03 C22.161,80.342 22.591,80.535 23.067,80.535 C23.542,80.535 23.973,80.342 24.285,80.03 C24.597,79.718 24.789,79.288 24.789,78.812 C24.789,78.337 24.597,77.906 24.285,77.594 M23.067,76.82 C23.617,76.82 24.115,77.043 24.476,77.403 C24.836,77.764 25.059,78.262 25.059,78.812 C25.059,79.362 24.836,79.86 24.476,80.221 C24.115,80.582 23.617,80.805 23.067,80.805 C22.517,80.805 22.019,80.582 21.659,80.221 C21.298,79.861 21.075,79.363 21.075,78.812 C21.075,78.262 21.298,77.764 21.659,77.403 C22.019,77.043 22.517,76.82 23.067,76.82 Z" id="Shape"></path>
            <path d="M32.854,66.14 C32.389,65.143 31.544,64.321 30.434,63.917 L17.787,59.314 C16.677,58.91 15.503,58.997 14.506,59.461 C13.512,59.925 12.692,60.765 12.287,61.87 L12.286,61.872 L12.283,61.882 C11.879,62.993 11.965,64.167 12.43,65.164 C12.895,66.161 13.74,66.983 14.85,67.387 L27.496,71.989 C28.607,72.394 29.781,72.307 30.778,71.842 C31.775,71.377 32.597,70.533 33.001,69.422 L33.014,69.385 L33.014,69.384 C33.403,68.286 33.314,67.126 32.854,66.14 Z M22.996,67.07 C22.996,67.266 22.837,67.424 22.642,67.424 C22.447,67.424 22.288,67.265 22.288,67.07 L22.288,64.234 C22.288,64.038 22.447,63.88 22.642,63.88 C22.837,63.88 22.996,64.039 22.996,64.234 L22.996,67.07 Z" id="Shape"></path>
            <path d="M30.775,62.984 L18.164,58.394 L18.164,58.394 L18.128,58.381 C16.761,57.884 15.315,57.99 14.087,58.563 C12.861,59.135 11.852,60.17 11.354,61.533 L11.351,61.542 C10.854,62.909 10.96,64.355 11.533,65.584 L11.532,65.584 C12.105,66.812 13.144,67.823 14.511,68.32 L27.122,72.91 L27.159,72.923 C28.526,73.42 29.972,73.314 31.2,72.741 C32.425,72.17 33.433,71.135 33.932,69.774 L33.936,69.762 C34.434,68.395 34.327,66.949 33.754,65.72 L33.755,65.72 C33.181,64.493 32.142,63.482 30.775,62.984 M18.272,57.983 L30.919,62.586 C32.396,63.123 33.519,64.216 34.138,65.542 L34.139,65.542 C34.752,66.856 34.869,68.403 34.347,69.87 L34.347,69.871 L34.334,69.908 C33.796,71.386 32.704,72.509 31.378,73.128 C30.063,73.741 28.517,73.858 27.05,73.336 L27.049,73.336 L27.013,73.323 L14.366,68.72 C12.889,68.183 11.766,67.09 11.147,65.764 L11.146,65.764 C10.533,64.45 10.416,62.903 10.938,61.436 L10.938,61.435 L10.951,61.398 C11.489,59.92 12.581,58.797 13.907,58.178 C15.222,57.565 16.768,57.448 18.235,57.97 L18.236,57.97 L18.272,57.983 Z" id="Shape"></path>
            <g id="Group" transform="translate(12.024801, 40.874120)">
                <path d="M20.8291988,7.08387958 C20.3641988,6.08687958 19.5191988,5.26487958 18.4091988,4.86087958 L5.76219883,0.257879583 C4.65219883,-0.146120417 3.47819883,-0.0591204172 2.48119883,0.404879583 C1.48719883,0.868879583 0.667198831,1.70887958 0.262198831,2.81387958 L0.261198831,2.81587958 L0.258198831,2.82587958 C-0.145801169,3.93687958 -0.0598011692,5.11087958 0.405198831,6.10787958 C0.870198831,7.10487958 1.71519883,7.92687958 2.82519883,8.33087958 L15.4711988,12.9338796 C16.5821988,13.3388796 17.7561988,13.2518796 18.7531988,12.7868796 C19.7501988,12.3218796 20.5721988,11.4778796 20.9761988,10.3668796 L20.9891988,10.3298796 L20.9891988,10.3288796 C21.3781988,9.22987958 21.2891988,8.06987958 20.8291988,7.08387958 Z M12.0211988,7.99687958 L12.0211988,7.99687958 L12.0191988,7.99887958 C11.6601988,8.35787958 11.1641988,8.57987958 10.6171988,8.57987958 C10.0691988,8.57987958 9.57219883,8.35787958 9.21419883,7.99887958 L9.21519883,7.99787958 C8.85619883,7.63887958 8.63319883,7.14287958 8.63319883,6.59487958 C8.63319883,6.04687958 8.85519883,5.54987958 9.21419883,5.19187958 C9.57319883,4.83387958 10.0691988,4.61087958 10.6171988,4.61087958 C11.1641988,4.61087958 11.6601988,4.83387958 12.0201988,5.19287958 L12.0211988,5.19187958 C12.3801988,5.55087958 12.6021988,6.04687958 12.6021988,6.59487958 C12.6021988,7.14187958 12.3801988,7.63787958 12.0211988,7.99687958 Z" id="Shape"></path>
                <path d="M11.5191988,5.69187958 L11.5191988,5.69187958 C11.2901988,5.46187958 10.9711988,5.31987958 10.6181988,5.31987958 C10.2661988,5.31987958 9.94719883,5.46287958 9.71619883,5.69387958 C9.48519883,5.92487958 9.34219883,6.24387958 9.34219883,6.59587958 C9.34219883,6.94887958 9.48519883,7.26887958 9.71419883,7.49787958 L9.71519883,7.49787958 C9.94619883,7.72887958 10.2651988,7.87187958 10.6171988,7.87187958 C10.9701988,7.87187958 11.2901988,7.72887958 11.5191988,7.49887958 L11.5201988,7.49787958 C11.7501988,7.26787958 11.8931988,6.94887958 11.8931988,6.59587958 C11.8931988,6.24387958 11.7501988,5.92387958 11.5191988,5.69387958 C11.5191988,5.69387958 11.5191988,5.69187958 11.5191988,5.69187958 Z" id="Path"></path>
            </g>
            <path d="M30.775,44.802 L18.164,40.212 L18.164,40.212 L18.128,40.199 C16.761,39.702 15.315,39.808 14.087,40.381 C12.861,40.953 11.852,41.988 11.354,43.351 L11.351,43.36 C10.854,44.727 10.96,46.173 11.533,47.402 L11.532,47.402 C12.105,48.63 13.144,49.641 14.511,50.138 L27.122,54.728 L27.159,54.741 C28.526,55.238 29.972,55.132 31.2,54.559 C32.425,53.988 33.433,52.953 33.932,51.592 L33.936,51.58 C34.434,50.213 34.327,48.767 33.754,47.538 L33.755,47.538 C33.181,46.311 32.142,45.3 30.775,44.802 M18.272,39.801 L30.919,44.404 C32.396,44.941 33.519,46.034 34.138,47.36 L34.139,47.36 C34.752,48.674 34.869,50.221 34.347,51.688 L34.347,51.689 L34.334,51.726 C33.796,53.204 32.704,54.327 31.378,54.946 C30.063,55.559 28.517,55.676 27.05,55.154 L27.049,55.154 L27.013,55.141 L14.366,50.538 C12.889,50 11.766,48.908 11.147,47.582 L11.146,47.582 C10.533,46.267 10.416,44.721 10.938,43.254 L10.938,43.253 L10.951,43.216 C11.489,41.738 12.581,40.615 13.907,39.996 C15.222,39.383 16.768,39.266 18.235,39.788 L18.236,39.788 L18.272,39.801 Z" id="Shape"></path>
            <path d="M42.829,0.85 C43.097,0.85 43.34,0.959 43.515,1.134 L43.517,1.136 C43.692,1.312 43.801,1.554 43.801,1.822 L43.801,83.957 C43.801,84.225 43.692,84.468 43.517,84.643 L43.515,84.645 C43.339,84.82 43.097,84.929 42.829,84.929 L1.822,84.929 C1.555,84.929 1.312,84.819 1.136,84.643 L1.135,84.644 C0.959,84.467 0.85,84.224 0.85,83.957 L0.85,1.822 C0.85,1.556 0.96,1.312 1.136,1.136 C1.312,0.96 1.555,0.85 1.822,0.85 L15.801,0.85 L42.829,0.85 L42.829,0.425 L42.829,0 L15.376,0 L13.935,0 L1.823,0 C1.321,0 0.865,0.205 0.535,0.535 C0.205,0.864 0,1.32 0,1.822 L0,83.957 C0,84.457 0.205,84.913 0.534,85.242 L0.534,85.244 C0.864,85.574 1.32,85.779 1.822,85.779 L42.829,85.779 C43.328,85.779 43.783,85.574 44.114,85.244 L44.115,85.243 L44.116,85.242 C44.446,84.912 44.651,84.457 44.651,83.957 L44.651,1.822 C44.651,1.323 44.446,0.867 44.116,0.537 L44.115,0.536 L44.114,0.535 C43.784,0.205 43.329,0 42.829,0" id="Path"></path>
        </g>
    </g>
</svg>